<?xml version="1.0" standalone="no"?>
<!DOCTYPE svg PUBLIC "-//W3C//DTD SVG 20010904//EN"
 "http://www.w3.org/TR/2001/REC-SVG-20010904/DTD/svg10.dtd">
<svg version="1.0" xmlns="http://www.w3.org/2000/svg"
 width="700.000000pt" height="700.000000pt" viewBox="0 0 700.000000 700.000000"
 preserveAspectRatio="xMidYMid meet">
<metadata>
Created by potrace 1.14, written by Peter Selinger 2001-2017
</metadata>
<g transform="translate(0.000000,700.000000) scale(0.100000,-0.100000)"
fill="#000000" stroke="none">
<path d="M3650 6085 c-30 -18 -74 -44 -97 -56 -23 -12 -39 -27 -36 -32 3 -6 1
-7 -5 -3 -8 4 -186 -93 -222 -122 -3 -2 -6 -324 -7 -715 -2 -814 0 -737 -12
-737 -6 0 -60 -29 -121 -65 -61 -36 -130 -76 -153 -89 -23 -13 -112 -64 -197
-113 -85 -50 -231 -134 -325 -188 -93 -54 -228 -132 -300 -173 -71 -41 -139
-80 -150 -86 -11 -6 -28 -17 -37 -25 -17 -13 -18 -74 -18 -1011 l0 -996 109
-62 109 -62 109 63 108 62 2 490 c1 270 2 549 3 622 l0 132 136 -80 c75 -44
154 -90 176 -102 23 -12 48 -26 57 -32 9 -5 125 -73 259 -150 l242 -139 0
-751 1 -750 110 -63 110 -63 37 23 c46 29 107 63 150 85 l32 17 1 730 c1 402
1 740 0 751 -1 16 38 43 196 134 109 62 210 122 225 132 15 11 30 19 33 19 4
0 284 161 568 326 32 19 60 34 63 34 2 0 4 -306 4 -680 l0 -680 23 -10 c12 -5
45 -23 72 -40 28 -17 68 -40 90 -51 l40 -21 108 62 107 63 -2 1796 -3 1795
-150 84 c-82 46 -177 98 -210 116 -52 28 -434 242 -535 299 -34 19 -75 42
-162 91 -24 12 -132 73 -242 135 -109 61 -208 113 -220 116 -13 3 -42 -8 -76
-30z"/>
</g>
</svg>
