<svg width="122" height="117" viewBox="0 0 122 117" fill="none" xmlns="http://www.w3.org/2000/svg">
<path d="M0 8C0 3.58172 3.58172 0 8 0H114C118.418 0 122 3.58172 122 8V109C122 113.418 118.418 117 114 117H8C3.58172 117 0 113.418 0 109V8Z" fill="#4CAF50"/>
<path d="M26.3995 82.52C22.9762 82.52 19.6612 82 16.4545 80.96C13.2912 79.8766 10.7995 78.49 8.97949 76.8L11.3845 71.73C13.1178 73.29 15.3278 74.5683 18.0145 75.565C20.7445 76.5183 23.5395 76.995 26.3995 76.995C30.1695 76.995 32.9862 76.3666 34.8495 75.11C36.7128 73.81 37.6445 72.0983 37.6445 69.975C37.6445 68.415 37.1245 67.1583 36.0845 66.205C35.0878 65.2083 33.8312 64.45 32.3145 63.93C30.8412 63.41 28.7395 62.825 26.0095 62.175C22.5862 61.3516 19.8128 60.5283 17.6895 59.705C15.6095 58.8816 13.8112 57.625 12.2945 55.935C10.8212 54.2016 10.0845 51.8833 10.0845 48.98C10.0845 46.5533 10.7128 44.365 11.9695 42.415C13.2695 40.465 15.2195 38.905 17.8195 37.735C20.4195 36.565 23.6478 35.98 27.5045 35.98C30.1912 35.98 32.8345 36.3266 35.4345 37.02C38.0345 37.7133 40.2662 38.71 42.1295 40.01L39.9845 45.21C38.0778 43.9966 36.0412 43.0866 33.8745 42.48C31.7078 41.83 29.5845 41.505 27.5045 41.505C23.8212 41.505 21.0478 42.1766 19.1845 43.52C17.3645 44.8633 16.4545 46.5966 16.4545 48.72C16.4545 50.28 16.9745 51.5583 18.0145 52.555C19.0545 53.5083 20.3328 54.2666 21.8495 54.83C23.4095 55.35 25.5112 55.9133 28.1545 56.52C31.5778 57.3433 34.3295 58.1666 36.4095 58.99C38.4895 59.8133 40.2662 61.07 41.7395 62.76C43.2562 64.45 44.0145 66.725 44.0145 69.585C44.0145 71.9683 43.3645 74.1566 42.0645 76.15C40.7645 78.1 38.7928 79.66 36.1495 80.83C33.5062 81.9566 30.2562 82.52 26.3995 82.52Z" fill="black"/>
<path d="M112.861 39L98.8206 81H92.5206L81.0606 47.46L69.6006 81H63.1806L49.1406 39H55.3206L66.6606 73.14L78.4806 39H84.0006L95.5806 73.32L107.161 39H112.861Z" fill="white"/>
</svg>

